<svg  viewBox="0 0 16 16" fill="none" xmlns="http://www.w3.org/2000/svg">
<path d="M14.5027 6.49248C14.4424 6.24593 14.2614 6.12265 14.0201 6.06102L10.1594 5.50628L8.41 1.93132C8.22903 1.49986 7.50515 1.49986 7.32417 1.93132L5.57478 5.44464L1.77437 6.06102C1.53307 6.06102 1.3521 6.24593 1.23145 6.49248C1.17113 6.73903 1.23145 6.98558 1.41243 7.10885L4.18733 9.88253L3.52376 13.8273C3.46344 14.0739 3.58409 14.3204 3.76506 14.4437C3.94603 14.567 4.18733 14.6286 4.42862 14.5053L7.86709 12.6562L11.3056 14.5053C11.4262 14.5053 11.4865 14.5053 11.6072 14.5053C11.7278 14.5053 11.8485 14.4437 11.9691 14.382C12.1501 14.2588 12.2707 14.0122 12.2104 13.7657L11.5469 9.82089L14.3218 7.04721C14.5027 6.92394 14.563 6.67739 14.5027 6.49248Z" fill="black"/>
<mask id="mask0_2_674" style="mask-type:luminance" maskUnits="userSpaceOnUse" x="1" y="1" >
<path d="M14.5027 6.49248C14.4424 6.24593 14.2614 6.12265 14.0201 6.06102L10.1594 5.50628L8.41 1.93132C8.22903 1.49986 7.50515 1.49986 7.32417 1.93132L5.57478 5.44464L1.77437 6.06102C1.53307 6.06102 1.3521 6.24593 1.23145 6.49248C1.17113 6.73903 1.23145 6.98558 1.41243 7.10885L4.18733 9.88253L3.52376 13.8273C3.46344 14.0739 3.58409 14.3204 3.76506 14.4437C3.94603 14.567 4.18733 14.6286 4.42862 14.5053L7.86709 12.6562L11.3056 14.5053C11.4262 14.5053 11.4865 14.5053 11.6072 14.5053C11.7278 14.5053 11.8485 14.4437 11.9691 14.382C12.1501 14.2588 12.2707 14.0122 12.2104 13.7657L11.5469 9.82089L14.3218 7.04721C14.5027 6.92394 14.563 6.67739 14.5027 6.49248Z" fill="white"/>
</mask>
<g mask="url(#mask0_2_674)">
<rect x="0.604431" y="0.990936" width="14.5271" height="14.8169" fill="#FF9F43"/>
</g>
</svg>
